<svg xmlns="http://www.w3.org/2000/svg" xmlns:xlink="http://www.w3.org/1999/xlink" viewBox="0 0 1380 1912.19"><defs><style>.cls-1{fill:url(#Degradado_sin_nombre_37);}.cls-2,.cls-3,.cls-4,.cls-5{fill:#fff;}.cls-2{opacity:0.13;}.cls-4{opacity:0.78;}.cls-5{opacity:0.47;}</style><linearGradient id="Degradado_sin_nombre_37" y1="955.69" x2="1377" y2="955.69" gradientUnits="userSpaceOnUse"><stop offset="0" stop-color="#2da8ff"/><stop offset="1" stop-color="#7c11ab"/></linearGradient></defs><title>olas</title><g id="Capa_2" data-name="Capa 2"><rect class="cls-1" y="0.19" width="1377" height="1911"/><path class="cls-2" d="M1379,988c-64,111.55-78.54,204.91-80.17,269-2.38,93.45,22.64,124.93,15,228.88-8.67,118-45.86,145.06-41.58,221.31,2.77,49.43,22.88,117.76,105.46,191Z" transform="translate(1 0.19)"/><path class="cls-3" d="M1435.61,1583.62" transform="translate(1 0.19)"/><path class="cls-2" d="M1377.65-.19c-40.09,16.74-98.3,47.69-120.34,109.09-39.58,110.3,50.28,202.43,36.62,379.87-10.79,140.18-72.57,156.55-80.56,274.67-5.7,84.37,16.57,212.83,162.58,385.72V-.19Z" transform="translate(1 0.19)"/><path class="cls-2" d="M1370.72,1282.59c-34.53,75.26-79.73,137.56-135.28,139.11-93.27,2.61-166.69-167.37-199.88-244.23-29.12-67.42-107.44-248.77-34.07-440.5,22.42-58.58,60.49-158.06,161.5-196.74,67.32-25.78,146.81-18.52,208.57,14.33C1378.34,558.17,1378.28,1266.12,1370.72,1282.59Z" transform="translate(1 0.19)"/><path class="cls-3" d="M1382.88,685.18" transform="translate(1 0.19)"/><path class="cls-2" d="M1376.52,0H0V230.88c289.1,9.66,472.47-29.86,588.8-70.13,23-7.94,59.54-21.54,113.35-33.11,159.37-34.28,248.07,8,401.55,11.68,63.1,1.51,156.82-2.7,272.82-33.11" transform="translate(1 0.19)"/><path class="cls-2" d="M0,886.36c247.15-154,386-375.15,381.82-545.45-3.74-153.93-76-259.09-76-259.09A417.43,417.43,0,0,0,231.82,0H0Z" transform="translate(1 0.19)"/><path class="cls-2" d="M1,1868.3V1351.57c8.84,4.68,96.36,53,111,157.8C126.12,1610,62.53,1680,53.6,1686.64,1,1725.94,1,1868.3,1,1868.3Z" transform="translate(1 0.19)"/></g><g id="Burbujas"><path id="Burbuja_1" data-name="Burbuja 1" class="cls-2" d="M575.4,1886c-30.68,6.37-291,60.37-327.35-26.52-13.23-31.61,8.11-70,30.26-109.86,49.68-89.39,133.76-134.08,149.49-142.17,77.8-40,223.12-79.53,311.74-8.41,52.05,41.77,88.59,125,50.25,190.64C755.37,1848.71,677.33,1864.9,575.4,1886Z" transform="translate(1 0.19)"/></g><g id="Olas"><path id="item1" class="cls-4" d="M0,1850.14c48.64,1.56,62.49,47.28,159.86,28.29,117.89-23,276.85-201.56,294.43-217.58,102.09-93,298.65,109.83,488.94,86.69,96.79-11.77,181.85-46.71,307.45,19.49,56.09,29.56,126.32,43.2,126.32,43.2V1911H0Z" transform="translate(1 0.19)"/><path id="item2" class="cls-5" d="M.68,1865.6c53.26-4.72,83.45,40.51,173.32,21.83,100.79-21,235.91-173,286.71-214.12,96.65-78.3,303.88,121.69,493.72,88.12,125.33-22.17,174.55-41.92,272.57,10.88,55.55,29.92,134.07,51,150.85,49.3L1377,1909H0Z" transform="translate(1 0.19)"/><path id="item3" class="cls-3" d="M1,1878.63c53.26-4.72,95.31,29,185.86,13.94,84.58-14.09,251.43-175.14,284.14-201.86,87.6-71.53,269.86,109.57,487.14,86.93,101.13-10.54,142.33-53.08,302.29,27.5,48.07,24.22,116.57,28.29,116.57,28.29V1912H1Z" transform="translate(1 0.19)"/><path class="cls-3" d="M1290.09,1643.49" transform="translate(1 0.19)"/><path class="cls-3" d="M1320.41,1752.63" transform="translate(1 0.19)"/></g></svg>