<svg version="1.1" id="Capa_1" xmlns="http://www.w3.org/2000/svg" xmlns:xlink="http://www.w3.org/1999/xlink" x="0px" y="0px"
	 width="384.066px" height="384.067px" viewBox="0 0 384.066 384.067" style="enable-background:new 0 0 384.066 384.067;"
	 xml:space="preserve">
    <rect x="4%" y="4%" width="24%" height="9%" style="fill:rgb(33, 33, 33);stroke-width:1;stroke:rgba(33,33,33,0.4);" />
        <rect x="33%" y="4%" width="24%" height="9%" style="fill:rgb(33, 33, 33);stroke-width:1;stroke:rgba(33,33,33,0.4);" />
        <rect x="62%" y="4%" width="24%" height="9%" style="fill:rgb(33, 33, 33);stroke-width:1;stroke:rgba(33,33,33,0.4);" />

    <rect x="4%" y="16%" width="24%" height="9%" style="fill:rgb(33, 33, 33);stroke-width:1;stroke:rgba(33,33,33,0.4);" />
        <rect x="75%" y="16%" width="24%" height="9%" style="fill:rgb(33, 33, 33);stroke-width:1;stroke:rgba(33,33,33,0.4);" />

    <rect x="4%" y="28%" width="24%" height="9%" style="fill:rgb(33, 33, 33);stroke-width:1;stroke:rgba(33,33,33,0.4);" />
        <rect x="75%" y="28%" width="24%" height="9%" style="fill:rgb(33, 33, 33);stroke-width:1;stroke:rgba(33,33,33,0.4);" />

    <rect x="4%" y="40%" width="24%" height="9%" style="fill:rgb(33, 33, 33);stroke-width:1;stroke:rgba(33,33,33,0.4);" />
        <rect x="33%" y="40%" width="24%" height="9%" style="fill:rgb(33, 33, 33);stroke-width:1;stroke:rgba(33,33,33,0.4);" />
        <rect x="62%" y="40%" width="24%" height="9%" style="fill:rgb(33, 33, 33);stroke-width:1;stroke:rgba(33,33,33,0.4);" />

    <rect x="4%" y="52%" width="24%" height="9%" style="fill:rgb(33, 33, 33);stroke-width:1;stroke:rgba(33,33,33,0.4);" />
        <rect x="33%" y="52%" width="24%" height="9%" style="fill:rgb(33, 33, 33);stroke-width:1;stroke:rgba(33,33,33,0.4);" />
        <rect x="62%" y="52%" width="24%" height="9%" style="fill:rgb(33, 33, 33);stroke-width:1;stroke:rgba(33,33,33,0.4);" />

    <rect x="4%" y="64%" width="24%" height="9%" style="fill:rgb(33, 33, 33);stroke-width:1;stroke:rgba(33,33,33,0.4);" />
        <rect x="75%" y="64%" width="24%" height="9%" style="fill:rgb(33, 33, 33);stroke-width:1;stroke:rgba(33,33,33,0.4);" />

    <rect x="4%" y="76%" width="24%" height="9%" style="fill:rgb(33, 33, 33);stroke-width:1;stroke:rgba(33,33,33,0.4);" />
        <rect x="75%" y="76%" width="24%" height="9%" style="fill:rgb(33, 33, 33);stroke-width:1;stroke:rgba(33,33,33,0.4);" />

    <rect x="4%" y="88%" width="24%" height="9%" style="fill:rgb(33, 33, 33);stroke-width:1;stroke:rgba(33,33,33,0.4);" />
        <rect x="33%" y="88%" width="24%" height="9%" style="fill:rgb(33, 33, 33);stroke-width:1;stroke:rgba(33,33,33,0.4);" />
        <rect x="62%" y="88%" width="24%" height="9%" style="fill:rgb(33, 33, 33);stroke-width:1;stroke:rgba(33,33,33,0.4);" />
</svg>