<svg id="Capa_1" data-name="Capa 1" xmlns="http://www.w3.org/2000/svg" xmlns:xlink="http://www.w3.org/1999/xlink" viewBox="0 0 402.11 425.56"><defs><style>.cls-1{fill:url(#Degradado_sin_nombre_13);}.cls-2{fill:#fff;}</style><linearGradient id="Degradado_sin_nombre_13" x1="309.58" y1="427.58" x2="85.61" y2="39.65" gradientTransform="matrix(-1, 0, 0, 1, 407.78, 0)" gradientUnits="userSpaceOnUse"><stop offset="0" stop-color="#2da8ff"/><stop offset="0.12" stop-color="#329ffa"/><stop offset="0.33" stop-color="#3f85ec"/><stop offset="0.6" stop-color="#555cd5"/><stop offset="0.91" stop-color="#7323b5"/><stop offset="0.99" stop-color="#7c11ab"/></linearGradient></defs><title>bubble2</title><path class="cls-1" d="M36.78,221C2.88,326.34-.36,334.84,4.78,350c19.72,58.23,120.16,88.34,199,76,100.5-15.74,196.43-104.6,201-211,3.19-74.41-39.56-127.84-48-138-10-12-68.35-82.2-150-73-65,7.32-103.9,60.38-119,81C74,103.86,71.24,113.9,36.78,221Z" transform="translate(-2.83 -3.17)"/><path class="cls-2" d="M396.05,149.75c-22-4.38-97.72-20.48-139.5-41.79-38.89-19.84-91-65.07-109.89-81.95-4.56-4.08,29.16-18.54,32.92-16,15.22,10.3,56.39,37.7,84.75,52.11,32.57,16.55,83.64,33.89,112,43C388.86,109.16,400,150.53,396.05,149.75Z" transform="translate(-2.83 -3.17)"/><path class="cls-2" d="M82.8,83.2l19.11-22.76s66.63,49.91,113.42,73.69c70.79,36,189.61,61.16,189.61,61.16V226.1S276.46,215.1,207.55,180C154.9,153.11,82.8,83.2,82.8,83.2Z" transform="translate(-2.83 -3.17)"/><path class="cls-2" d="M55.24,163.68l8.44-31.62s71.14,55.38,123.65,82.07c71.56,36.36,183.3,59.14,204,63.17,2.2.43-8.77,28.59-13.58,28.17-29.1-2.57-136.16-13.85-198.24-45.51C127.15,233.24,55.24,163.68,55.24,163.68Z" transform="translate(-2.83 -3.17)"/><path class="cls-2" d="M30,242.17a35.75,35.75,0,0,1,10.62-33c42.76,35.29,81.68,56.21,108.75,70,76.66,38.95,202.28,63.1,202.28,63.1A30.56,30.56,0,0,1,343.78,361a31,31,0,0,1-21.16,9.71c-16.65-1.9-39.75-5.48-67.12-10.94C218,352.32,172.76,340.88,141.55,325,96.18,301.82,30,242.17,30,242.17Z" transform="translate(-2.83 -3.17)"/><path class="cls-2" d="M15.18,288.46s51.24,34.45,83.15,50.67c67.7,34.4,182.72,60,182.72,60a193.67,193.67,0,0,1-69,25.38S131.27,405.73,90.55,385C57.72,368.22,4.77,326.51,4.77,326.51a71.89,71.89,0,0,1,4-24.51A71.06,71.06,0,0,1,15.18,288.46Z" transform="translate(-2.83 -3.17)"/></svg>