<svg id="Capa_1" data-name="Capa 1" xmlns="http://www.w3.org/2000/svg" xmlns:xlink="http://www.w3.org/1999/xlink" viewBox="0 0 402.11 425.56"><defs><style>.cls-1{fill:url(#Degradado_sin_nombre_13);}.cls-2{fill:#fff;}</style><linearGradient id="Degradado_sin_nombre_13" x1="309.58" y1="427.58" x2="85.61" y2="39.65" gradientUnits="userSpaceOnUse"><stop offset="0" stop-color="#2da8ff"/><stop offset="0.12" stop-color="#329ffa"/><stop offset="0.33" stop-color="#3f85ec"/><stop offset="0.6" stop-color="#555cd5"/><stop offset="0.91" stop-color="#7323b5"/><stop offset="0.99" stop-color="#7c11ab"/></linearGradient></defs><title>bubble</title><path class="cls-1" d="M371,221c33.9,105.34,37.14,113.84,32,129-19.73,58.23-120.16,88.34-199,76C103.49,410.26,7.56,321.4,3,215-.19,140.59,42.55,87.16,51,77,61,65,119.34-5.2,201,4c65,7.32,103.89,60.38,119,81C333.82,103.86,336.53,113.9,371,221Z" transform="translate(-2.83 -3.17)"/><path class="cls-2" d="M11.73,149.75c22-4.38,97.72-20.48,139.5-41.79,38.89-19.84,91-65.07,109.88-81.95,4.56-4.08-29.15-18.54-32.92-16C213,20.32,171.8,47.72,143.45,62.13c-32.58,16.55-83.64,33.89-112,43C18.91,109.16,7.81,150.53,11.73,149.75Z" transform="translate(-2.83 -3.17)"/><path class="cls-2" d="M325,83.2l-19.1-22.76s-66.64,49.91-113.42,73.69c-70.79,36-189.62,61.16-189.62,61.16V226.1s128.49-11,197.4-46.14C252.88,153.11,325,83.2,325,83.2Z" transform="translate(-2.83 -3.17)"/><path class="cls-2" d="M352.54,163.68l-8.45-31.62S273,187.44,220.45,214.13c-71.56,36.36-183.31,59.14-204,63.17-2.19.43,8.78,28.59,13.58,28.17,29.1-2.57,136.16-13.85,198.25-45.51C280.62,233.24,352.54,163.68,352.54,163.68Z" transform="translate(-2.83 -3.17)"/><path class="cls-2" d="M377.82,242.17a35.72,35.72,0,0,0-10.63-33c-42.76,35.29-81.68,56.21-108.74,70-76.67,38.95-202.28,63.1-202.28,63.1A30.56,30.56,0,0,0,64,361a30.94,30.94,0,0,0,21.16,9.71c16.64-1.9,39.74-5.48,67.12-10.94,37.46-7.45,82.73-18.89,114-34.81C311.59,301.82,377.82,242.17,377.82,242.17Z" transform="translate(-2.83 -3.17)"/><path class="cls-2" d="M392.59,288.46s-51.24,34.45-83.14,50.67c-67.71,34.4-182.72,60-182.72,60a193.71,193.71,0,0,0,69,25.38S276.51,405.73,317.23,385C350.05,368.22,403,326.51,403,326.51a71.28,71.28,0,0,0-10.41-38.05Z" transform="translate(-2.83 -3.17)"/></svg>