<svg id="Capa_1" data-name="Capa 1" xmlns="http://www.w3.org/2000/svg" xmlns:xlink="http://www.w3.org/1999/xlink" viewBox="0 0 402.12 425.56"><defs><style>.cls-1{fill:url(#Degradado_sin_nombre_16);}.cls-2{fill:#fff;}</style><linearGradient id="Degradado_sin_nombre_16" x1="309.58" y1="0.42" x2="85.6" y2="388.35" gradientTransform="matrix(1, 0, 0, -1, -2.83, 424.83)" gradientUnits="userSpaceOnUse"><stop offset="0" stop-color="#ee0979"/><stop offset="0.99" stop-color="#ff6a00"/></linearGradient></defs><title>bubble</title><path class="cls-1" d="M368.17,217.83c33.9,105.34,37.14,113.84,32,129-19.73,58.23-120.16,88.34-199,76-100.51-15.74-196.44-104.6-201-211C-3,137.42,39.72,84,48.17,73.83c10-12,68.34-82.2,150-73,65,7.32,103.89,60.38,119,81C331,100.69,333.7,110.73,368.17,217.83Z" transform="translate(0 0)"/><path class="cls-2" d="M8.9,146.58c22-4.38,97.72-20.48,139.5-41.79,38.89-19.84,91-65.07,109.88-81.95,4.56-4.08-29.15-18.54-32.92-16C210.17,17.15,169,44.55,140.62,59,108,75.51,57,92.85,28.62,102,16.08,106,5,147.36,8.9,146.58Z" transform="translate(0 0)"/><path class="cls-2" d="M322.17,80l-19.1-22.76S236.43,107.18,189.65,131C118.86,167,0,192.12,0,192.12v30.81s128.49-11,197.4-46.14C250.05,149.94,322.17,80,322.17,80Z" transform="translate(0 0)"/><path class="cls-2" d="M349.71,160.51l-8.45-31.62S270.17,184.27,217.62,211c-71.56,36.36-183.31,59.14-204,63.17-2.19.43,8.78,28.59,13.58,28.17,29.1-2.57,136.16-13.85,198.25-45.51C277.79,230.07,349.71,160.51,349.71,160.51Z" transform="translate(0 0)"/><path class="cls-2" d="M375,239a35.73,35.73,0,0,0-10.63-33c-42.76,35.29-81.68,56.21-108.74,70C179,315,53.34,339.1,53.34,339.1a30.56,30.56,0,0,0,7.83,18.73,30.94,30.94,0,0,0,21.16,9.71c16.64-1.9,39.74-5.48,67.12-10.94,37.46-7.45,82.73-18.89,114-34.81C308.76,298.65,375,239,375,239Z" transform="translate(0 0)"/><path class="cls-2" d="M389.76,285.29S338.52,319.74,306.62,336c-67.71,34.4-182.72,60-182.72,60a193.7,193.7,0,0,0,69,25.38s80.78-18.78,121.5-39.51c32.82-16.78,85.77-58.49,85.77-58.49a71.27,71.27,0,0,0-10.41-38Z" transform="translate(0 0)"/></svg>