<svg id="Capa_1" data-name="Capa 1" xmlns="http://www.w3.org/2000/svg" xmlns:xlink="http://www.w3.org/1999/xlink" viewBox="0 0 402.12 425.56"><defs><style>.cls-1{fill:url(#Degradado_sin_nombre_16);}.cls-2{fill:#fff;}</style><linearGradient id="Degradado_sin_nombre_16" x1="309.58" y1="0.42" x2="85.6" y2="388.35" gradientTransform="translate(404.95 424.83) rotate(180)" gradientUnits="userSpaceOnUse"><stop offset="0" stop-color="#ee0979"/><stop offset="0.99" stop-color="#ff6a00"/></linearGradient></defs><title>bubble2</title><path class="cls-1" d="M34,217.83C.05,323.17-3.19,331.67,2,346.83c19.73,58.23,120.16,88.34,199,76,100.51-15.74,196.44-104.6,201-211,3.19-74.41-39.55-127.84-48-138-10-12-68.34-82.2-150-73-65,7.32-103.89,60.38-119,81C71.13,100.69,68.42,110.73,34,217.83Z" transform="translate(0 0)"/><path class="cls-2" d="M393.22,146.58c-22-4.38-97.72-20.48-139.5-41.79-38.89-19.84-91-65.07-109.88-81.95-4.56-4.08,29.15-18.54,32.92-16C192,17.15,233.15,44.55,261.5,59c32.58,16.55,83.64,33.89,112,43C386,106,397.14,147.36,393.22,146.58Z" transform="translate(0 0)"/><path class="cls-2" d="M80,80l19.1-22.76S165.69,107.18,212.47,131c70.79,36,189.62,61.16,189.62,61.16v30.81s-128.49-11-197.4-46.14C152.07,149.94,80,80,80,80Z" transform="translate(0 0)"/><path class="cls-2" d="M52.41,160.51l8.45-31.62S132,184.27,184.5,211c71.56,36.36,183.31,59.14,204,63.17,2.19.43-8.78,28.59-13.58,28.17-29.1-2.57-136.16-13.85-198.25-45.51C124.33,230.07,52.41,160.51,52.41,160.51Z" transform="translate(0 0)"/><path class="cls-2" d="M27.13,239a35.7,35.7,0,0,1,10.63-33c42.76,35.29,81.68,56.21,108.74,70,76.67,38.95,202.28,63.1,202.28,63.1A30.62,30.62,0,0,1,341,357.83a30.94,30.94,0,0,1-21.16,9.71c-16.64-1.9-39.74-5.48-67.12-10.94-37.46-7.45-82.73-18.89-114-34.81C93.36,298.65,27.13,239,27.13,239Z" transform="translate(0 0)"/><path class="cls-2" d="M12.36,285.29S63.6,319.74,95.5,336c67.71,34.4,182.72,60,182.72,60a193.7,193.7,0,0,1-69,25.38s-80.78-18.78-121.5-39.51C54.9,365.05,2,323.34,2,323.34a71.27,71.27,0,0,1,10.41-38Z" transform="translate(0 0)"/></svg>